<svg xmlns="http://www.w3.org/2000/svg" viewBox="0 0 400 400">
    <defs>
        <linearGradient id="g2" x1="0" y1="0" x2="1" y2="1">
            <stop offset="0%" stop-color="#C3B6DE"/>
            <stop offset="100%" stop-color="#9CB89A"/>
        </linearGradient>
    </defs>
    <rect width="400" height="400" fill="url(#g2)"/>
    <g fill="#FFFFFF" opacity="0.35">
        <path d="M200 130c0-18 15-32 32-32 13 0 23 7 29 17 6-10 16-17 29-17 17 0 32 14 32 32 0 34-61 70-61 70s-61-36-61-70z"/>
        <path d="M90 260c0-9 7-16 16-16 6 0 11 3 14 8 3-5 8-8 14-8 9 0 16 7 16 16 0 17-30 35-30 35s-30-18-30-35z"/>
    </g>
</svg>
